<?xml version="1.0" encoding="UTF-8" standalone="no"?>
<!DOCTYPE svg PUBLIC "-//W3C//DTD SVG 1.1//EN" "http://www.w3.org/Graphics/SVG/1.1/DTD/svg11.dtd">
<svg width="100%" height="100%" viewBox="0 0 1080 1080" version="1.1" xmlns="http://www.w3.org/2000/svg" xmlns:xlink="http://www.w3.org/1999/xlink" xml:space="preserve" xmlns:serif="http://www.serif.com/" style="fill-rule:evenodd;clip-rule:evenodd;stroke-linecap:round;stroke-linejoin:round;stroke-miterlimit:1.5;">
    <g transform="matrix(1.38381,0,0,1.38381,-334.395,-188.215)">
        <g transform="matrix(0.933333,0,0,0.925926,36.6667,29.8148)">
            <ellipse cx="550" cy="335" rx="150" ry="135" style="fill:rgb(69,69,69);"/>
        </g>
        <g transform="matrix(1,0,0,1,-110,0)">
            <g id="レイヤー1">
                <path d="M665,400C756.066,400 840,540 850,640C856.592,705.925 846.21,750.548 810,790C781.357,821.208 710,840 660,840C615.3,840 549.727,817.67 520,780C489.166,740.927 480,700.416 480,640C480,521.338 573.934,400 665,400Z" style="fill:rgb(69,69,69);"/>
            </g>
        </g>
        <g id="レイヤー2">
            <g transform="matrix(0.836035,-0.548676,0.619976,0.944676,-95.9318,275.802)">
                <path d="M472.551,194.898C473.855,192.289 476.776,190.606 480,190.606C483.224,190.606 486.145,192.289 487.449,194.898C499.021,218.042 520,260 520,260L440,260C440,260 460.979,218.042 472.551,194.898Z" style="fill:rgb(69,69,69);"/>
            </g>
            <g transform="matrix(-0.836035,-0.548676,-0.619976,0.944676,1195.93,275.802)">
                <path d="M472.551,194.898C473.855,192.289 476.776,190.606 480,190.606C483.224,190.606 486.145,192.289 487.449,194.898C499.021,218.042 520,260 520,260L440,260C440,260 460.979,218.042 472.551,194.898Z" style="fill:rgb(69,69,69);"/>
            </g>
        </g>
        <g id="レイヤー3">
            <path d="M560,790C580,810 660,870 730,870C800,870 830,860 860,830C890,800 900,750 890,710" style="fill:none;stroke:rgb(69,69,69);stroke-width:32.35px;"/>
        </g>
    </g>
</svg>
